M48
; DRILL file {KiCad (6.0.6)} date Sun Jul 10 17:15:34 2022
; FORMAT={-:-/ absolute / metric / decimal}
; #@! TF.CreationDate,2022-07-10T17:15:34+03:00
; #@! TF.GenerationSoftware,Kicad,Pcbnew,(6.0.6)
; #@! TF.FileFunction,Plated,1,2,PTH
FMAT,2
METRIC
; #@! TA.AperFunction,Plated,PTH,ViaDrill
T1C0.400
; #@! TA.AperFunction,Plated,PTH,ComponentDrill
T2C1.000
; #@! TA.AperFunction,Plated,PTH,ComponentDrill
T3C1.500
; #@! TA.AperFunction,Plated,PTH,ComponentDrill
T4C3.200
%
G90
G05
T1
X166.688Y-107.156
X166.688Y-109.537
T2
X140.97Y-31.48
X140.97Y-46.72
X143.51Y-31.48
X143.51Y-46.72
X146.05Y-31.48
X146.05Y-46.72
X148.59Y-31.48
X148.59Y-46.72
X151.13Y-31.48
X151.13Y-46.72
X153.67Y-31.48
X153.67Y-46.72
X156.21Y-31.48
X156.21Y-46.72
X158.75Y-31.48
X158.75Y-46.72
X161.29Y-31.48
X161.29Y-46.72
X163.83Y-31.48
X163.83Y-46.72
X166.37Y-31.48
X166.37Y-46.72
X168.91Y-31.48
X168.91Y-46.72
X171.45Y-31.48
X171.45Y-46.72
X173.99Y-31.48
X173.99Y-46.72
X176.53Y-31.48
X176.53Y-46.72
X179.07Y-31.48
X179.07Y-46.72
X181.61Y-31.48
X181.61Y-46.72
X184.15Y-31.48
X184.15Y-46.72
X186.69Y-31.48
X186.69Y-46.72
X189.23Y-31.48
X189.23Y-46.72
T4
X163.4Y-64.92
X225.91Y-103.12
T3
X42.391Y-22.757G85X42.352Y-22.178
G05
X44.772Y-41.807G85X44.733Y-41.228
G05
X47.153Y-60.857G85X47.114Y-60.278
G05
X48.751Y-24.686G85X47.542Y-22.789
G05
X49.535Y-79.907G85X49.495Y-79.328
G05
X51.132Y-43.736G85X49.923Y-41.839
G05
X53.513Y-62.786G85X52.304Y-60.889
G05
X55.894Y-81.836G85X54.686Y-79.939
G05
X66.162Y-22.757G85X66.123Y-22.178
G05
X66.203Y-41.807G85X66.164Y-41.228
G05
X70.966Y-60.857G85X70.927Y-60.278
G05
X72.522Y-24.686G85X71.313Y-22.789
G05
X72.563Y-43.736G85X71.354Y-41.839
G05
X77.326Y-62.786G85X76.117Y-60.889
G05
X82.872Y-84.176G85X82.833Y-83.597
G05
X89.232Y-86.106G85X88.023Y-84.208
G05
X89.11Y-23.638G85X89.192Y-23.064
G05
X89.808Y-43.262G85X89.89Y-42.687
G05
X94.93Y-26.847G85X94.142Y-24.74
G05
X95.164Y-63.876G85X95.246Y-63.301
G05
X95.628Y-46.471G85X94.84Y-44.364
G05
X100.984Y-67.085G85X100.196Y-64.978
G05
X107.744Y-27.598G85X107.826Y-27.024
G05
X108.442Y-47.222G85X108.523Y-46.648
G05
X113.564Y-30.808G85X112.776Y-28.701
G05
X113.798Y-67.836G85X113.88Y-67.262
G05
X114.261Y-50.432G85X113.473Y-48.324
G05
X119.617Y-71.046G85X118.83Y-68.938
G05
X121.483Y-88.946G85X121.565Y-88.371
G05
X126.378Y-31.559G85X126.459Y-30.985
G05
X127.303Y-92.155G85X126.515Y-90.048
G05
X127.075Y-51.183G85X127.157Y-50.609
G05
X132.197Y-34.769G85X131.409Y-32.661
G05
X132.432Y-71.797G85X132.513Y-71.223
G05
X132.895Y-54.393G85X132.107Y-52.285
G05
X138.251Y-75.007G85X137.463Y-72.899
G05
X145.011Y-35.52G85X145.093Y-34.946
G05
X145.709Y-55.144G85X145.791Y-54.57
G05
X150.831Y-38.729G85X150.043Y-36.622
G05
X151.065Y-75.758G85X151.147Y-75.184
G05
X151.529Y-58.353G85X150.741Y-56.246
G05
X151.763Y-95.382G85X151.845Y-94.808
G05
X156.885Y-78.967G85X156.097Y-76.86
G05
X157.583Y-98.591G85X156.795Y-96.484
G05
X178.109Y-37.55G85X177.95Y-36.992
G05
X181.372Y-75.807G85X181.213Y-75.25
G05
X184.731Y-38.115G85X183.154Y-36.51
G05
X186.728Y-55.193G85X186.569Y-54.635
G05
X187.994Y-76.372G85X186.417Y-74.768
G05
X193.35Y-55.758G85X191.773Y-54.154
G05
X196.743Y-33.589G85X196.584Y-33.031
G05
X199.308Y-91.471G85X199.149Y-90.913
G05
X200.006Y-71.847G85X199.847Y-71.289
G05
X203.364Y-34.154G85X201.787Y-32.549
G05
X205.93Y-92.036G85X204.353Y-90.431
G05
X205.362Y-51.233G85X205.203Y-50.675
G05
X206.627Y-72.412G85X205.05Y-70.807
G05
X211.984Y-51.798G85X210.407Y-50.193
G05
X215.376Y-29.628G85X215.217Y-29.07
G05
X218.639Y-67.886G85X218.48Y-67.328
G05
X221.998Y-30.193G85X220.421Y-28.589
G05
X223.995Y-47.272G85X223.837Y-46.714
G05
X225.261Y-68.451G85X223.684Y-66.846
G05
X230.617Y-47.837G85X229.04Y-46.232
G05
X234.01Y-25.668G85X233.851Y-25.11
G05
X237.273Y-63.925G85X237.114Y-63.367
G05
X240.632Y-26.233G85X239.055Y-24.628
G05
X242.629Y-43.311G85X242.47Y-42.753
G05
X243.895Y-64.49G85X242.318Y-62.885
G05
X249.251Y-43.876G85X247.674Y-42.271
G05
X249.212Y-85.732G85X249.053Y-85.174
G05
X255.833Y-86.297G85X254.256Y-84.692
G05
X261.466Y-22.757G85X261.427Y-22.178
G05
X261.466Y-60.857G85X261.427Y-60.278
G05
X266.228Y-41.807G85X266.189Y-41.228
G05
X267.826Y-24.686G85X266.617Y-22.789
G05
X267.826Y-62.786G85X266.617Y-60.889
G05
X272.588Y-43.736G85X271.379Y-41.839
G05
X280.516Y-22.757G85X280.477Y-22.178
G05
X280.516Y-60.857G85X280.477Y-60.278
G05
X285.278Y-41.807G85X285.239Y-41.228
G05
X286.876Y-24.686G85X285.667Y-22.789
G05
X286.876Y-62.786G85X285.667Y-60.889
G05
X291.638Y-43.736G85X290.429Y-41.839
G05
X301.947Y-79.907G85X301.908Y-79.328
G05
X304.328Y-60.857G85X304.289Y-60.278
G05
X308.307Y-81.836G85X307.098Y-79.939
G05
X310.688Y-62.786G85X309.479Y-60.889
G05
X311.781Y-40.642G85X313.679Y-39.433
G05
X313.711Y-34.282G85X314.289Y-34.243
G05
T4
X60.36Y-45.82G85X63.06Y-45.82
G05
X295.513Y-45.815G85X293.305Y-46.989
G05
T0
M30
