%TF.GenerationSoftware,KiCad,Pcbnew,(6.0.6)*%
%TF.CreationDate,2022-07-10T17:12:38+03:00*%
%TF.ProjectId,liisa,6c696973-612e-46b6-9963-61645f706362,rev?*%
%TF.SameCoordinates,Original*%
%TF.FileFunction,Copper,L1,Top*%
%TF.FilePolarity,Positive*%
%FSLAX46Y46*%
G04 Gerber Fmt 4.6, Leading zero omitted, Abs format (unit mm)*
G04 Created by KiCad (PCBNEW (6.0.6)) date 2022-07-10 17:12:38*
%MOMM*%
%LPD*%
G01*
G04 APERTURE LIST*
G04 Aperture macros list*
%AMHorizOval*
0 Thick line with rounded ends*
0 $1 width*
0 $2 $3 position (X,Y) of the first rounded end (center of the circle)*
0 $4 $5 position (X,Y) of the second rounded end (center of the circle)*
0 Add line between two ends*
20,1,$1,$2,$3,$4,$5,0*
0 Add two circle primitives to create the rounded ends*
1,1,$1,$2,$3*
1,1,$1,$4,$5*%
G04 Aperture macros list end*
%TA.AperFunction,Profile*%
%ADD10C,0.100000*%
%TD*%
%TA.AperFunction,ComponentPad*%
%ADD11HorizOval,2.500000X-0.788523X0.802407X0.788523X-0.802407X0*%
%TD*%
%TA.AperFunction,ComponentPad*%
%ADD12HorizOval,2.500000X-0.079448X0.278905X0.079448X-0.278905X0*%
%TD*%
%TA.AperFunction,ComponentPad*%
%ADD13C,4.000000*%
%TD*%
%TA.AperFunction,ComponentPad*%
%ADD14O,6.700000X4.000000*%
%TD*%
%TA.AperFunction,ComponentPad*%
%ADD15HorizOval,4.000000X-1.103684X-0.586839X1.103684X0.586839X0*%
%TD*%
%TA.AperFunction,ComponentPad*%
%ADD16HorizOval,2.500000X-0.393983X1.053756X0.393983X-1.053756X0*%
%TD*%
%TA.AperFunction,ComponentPad*%
%ADD17HorizOval,2.500000X0.040861X0.287107X-0.040861X-0.287107X0*%
%TD*%
%TA.AperFunction,ComponentPad*%
%ADD18HorizOval,2.500000X-0.604462X0.948815X0.604462X-0.948815X0*%
%TD*%
%TA.AperFunction,ComponentPad*%
%ADD19HorizOval,2.500000X-0.019724X0.289328X0.019724X-0.289328X0*%
%TD*%
%TA.AperFunction,ComponentPad*%
%ADD20HorizOval,2.500000X0.948815X0.604462X-0.948815X-0.604462X0*%
%TD*%
%TA.AperFunction,ComponentPad*%
%ADD21HorizOval,2.500000X0.289328X0.019724X-0.289328X-0.019724X0*%
%TD*%
%TA.AperFunction,ComponentPad*%
%ADD22C,1.700000*%
%TD*%
%TA.AperFunction,ComponentPad*%
%ADD23R,1.700000X1.700000*%
%TD*%
%TA.AperFunction,ViaPad*%
%ADD24C,0.800000*%
%TD*%
%TA.AperFunction,Conductor*%
%ADD25C,0.250000*%
%TD*%
G04 APERTURE END LIST*
D10*
X320410000Y-113520000D02*
X320410000Y-76010000D01*
X38210000Y-72820000D02*
X35410000Y-72820000D01*
X368553350Y-22485001D02*
X368553350Y-22485001D01*
X35410000Y-17920000D02*
X320410000Y-17920000D01*
X38210000Y-76020000D02*
G75*
G03*
X38210000Y-72820000I0J1600000D01*
G01*
X320410000Y-76010000D02*
X317610000Y-76010000D01*
X320410000Y-17920000D02*
X320410000Y-72810000D01*
X35410000Y-76020000D02*
X35410000Y-113520000D01*
X38210000Y-76020000D02*
X35410000Y-76020000D01*
X320410000Y-72810000D02*
X317610000Y-72810000D01*
X317610000Y-72810000D02*
G75*
G03*
X317610000Y-76010000I0J-1600000D01*
G01*
X320410000Y-113520000D02*
X35410000Y-113520000D01*
X35410000Y-72820000D02*
X35410000Y-17920000D01*
D11*
%TO.P,K24,1*%
%TO.N,/col 6*%
X192561387Y-54955928D03*
D12*
%TO.P,K24,2*%
%TO.N,Net-(D24-Pad2)*%
X186648537Y-54914370D03*
%TD*%
D13*
%TO.P,HOLE_M3,1*%
%TO.N,N/C*%
X225910000Y-103120000D03*
%TD*%
D14*
%TO.P,HOLE_M3,1*%
%TO.N,N/C*%
X61710000Y-45820000D03*
%TD*%
D15*
%TO.P,HOLE_M3,1*%
%TO.N,N/C*%
X294409020Y-46401931D03*
%TD*%
D13*
%TO.P,HOLE_M3,1*%
%TO.N,N/C*%
X163400000Y-64920000D03*
%TD*%
D16*
%TO.P,K14,1*%
%TO.N,/col 3*%
X119223496Y-69992248D03*
D17*
%TO.P,K14,2*%
%TO.N,Net-(D14-Pad2)*%
X113838741Y-67549311D03*
%TD*%
D11*
%TO.P,K34,1*%
%TO.N,/col 9*%
X248462522Y-43073775D03*
D12*
%TO.P,K34,2*%
%TO.N,Net-(D34-Pad2)*%
X242549672Y-43032217D03*
%TD*%
D16*
%TO.P,K13,1*%
%TO.N,/col 3*%
X113867358Y-49378176D03*
D17*
%TO.P,K13,2*%
%TO.N,Net-(D13-Pad2)*%
X108482603Y-46935239D03*
%TD*%
D16*
%TO.P,K18,1*%
%TO.N,/col 4*%
X137857208Y-73952966D03*
D17*
%TO.P,K18,2*%
%TO.N,Net-(D18-Pad2)*%
X132472453Y-71510029D03*
%TD*%
D11*
%TO.P,K31,1*%
%TO.N,/col 8*%
X229828811Y-47034494D03*
D12*
%TO.P,K31,2*%
%TO.N,Net-(D31-Pad2)*%
X223915961Y-46992936D03*
%TD*%
D16*
%TO.P,K17,1*%
%TO.N,/col 4*%
X132501070Y-53338896D03*
D17*
%TO.P,K17,2*%
%TO.N,Net-(D17-Pad2)*%
X127116315Y-50895959D03*
%TD*%
D11*
%TO.P,K25,1*%
%TO.N,/col 6*%
X187205249Y-75569999D03*
D12*
%TO.P,K25,2*%
%TO.N,Net-(D25-Pad2)*%
X181292399Y-75528441D03*
%TD*%
D11*
%TO.P,K26,1*%
%TO.N,/col 7*%
X202575953Y-33351678D03*
D12*
%TO.P,K26,2*%
%TO.N,Net-(D26-Pad2)*%
X196663103Y-33310120D03*
%TD*%
D18*
%TO.P,K37,1*%
%TO.N,/col 10*%
X271983750Y-42787500D03*
D19*
%TO.P,K37,2*%
%TO.N,Net-(D37-Pad2)*%
X266208750Y-41517500D03*
%TD*%
D16*
%TO.P,K22,1*%
%TO.N,/col 5*%
X157188631Y-97537574D03*
D17*
%TO.P,K22,2*%
%TO.N,Net-(D22-Pad2)*%
X151803876Y-95094637D03*
%TD*%
D16*
%TO.P,K21,1*%
%TO.N,/col 5*%
X156490920Y-77913684D03*
D17*
%TO.P,K21,2*%
%TO.N,Net-(D21-Pad2)*%
X151106165Y-75470747D03*
%TD*%
D18*
%TO.P,K2,1*%
%TO.N,/col 0*%
X50527500Y-42787500D03*
D19*
%TO.P,K2,2*%
%TO.N,Net-(D2-Pad2)*%
X44752500Y-41517500D03*
%TD*%
D18*
%TO.P,K6,1*%
%TO.N,/col 1*%
X71958750Y-42787500D03*
D19*
%TO.P,K6,2*%
%TO.N,Net-(D6-Pad2)*%
X66183750Y-41517500D03*
%TD*%
D18*
%TO.P,K38,1*%
%TO.N,/col 10*%
X267221250Y-61837500D03*
D19*
%TO.P,K38,2*%
%TO.N,Net-(D38-Pad2)*%
X261446250Y-60567500D03*
%TD*%
%TO.P,K1,2*%
%TO.N,Net-(D1-Pad2)*%
X42371250Y-22467500D03*
D18*
%TO.P,K1,1*%
%TO.N,/col 0*%
X48146250Y-23737500D03*
%TD*%
%TO.P,K7,1*%
%TO.N,/col 1*%
X76721250Y-61837500D03*
D19*
%TO.P,K7,2*%
%TO.N,Net-(D7-Pad2)*%
X70946250Y-60567500D03*
%TD*%
D16*
%TO.P,K11,1*%
%TO.N,/col 2*%
X100589784Y-66031530D03*
D17*
%TO.P,K11,2*%
%TO.N,Net-(D11-Pad2)*%
X95205029Y-63588593D03*
%TD*%
D11*
%TO.P,K28,1*%
%TO.N,/col 7*%
X205838961Y-71609282D03*
D12*
%TO.P,K28,2*%
%TO.N,Net-(D28-Pad2)*%
X199926111Y-71567724D03*
%TD*%
D18*
%TO.P,K8,1*%
%TO.N,/col 1*%
X88627500Y-85156736D03*
D19*
%TO.P,K8,2*%
%TO.N,Net-(D8-Pad2)*%
X82852500Y-83886736D03*
%TD*%
D18*
%TO.P,K41,1*%
%TO.N,/col 11*%
X291033750Y-42787500D03*
D19*
%TO.P,K41,2*%
%TO.N,Net-(D41-Pad2)*%
X285258750Y-41517500D03*
%TD*%
D16*
%TO.P,K15,1*%
%TO.N,/col 4*%
X126908848Y-91101408D03*
D17*
%TO.P,K15,2*%
%TO.N,Net-(D15-Pad2)*%
X121524093Y-88658471D03*
%TD*%
%TO.P,K9,2*%
%TO.N,Net-(D9-Pad2)*%
X89151181Y-23350631D03*
D16*
%TO.P,K9,1*%
%TO.N,/col 2*%
X94535936Y-25793568D03*
%TD*%
D18*
%TO.P,K45,1*%
%TO.N,/col 12*%
X307702500Y-80887500D03*
D19*
%TO.P,K45,2*%
%TO.N,Net-(D44-Pad2)*%
X301927500Y-79617500D03*
%TD*%
D18*
%TO.P,K42,1*%
%TO.N,/col 11*%
X286271250Y-61837500D03*
D19*
%TO.P,K42,2*%
%TO.N,Net-(D42-Pad2)*%
X280496250Y-60567500D03*
%TD*%
D11*
%TO.P,K35,1*%
%TO.N,/col 9*%
X243106384Y-63687846D03*
D12*
%TO.P,K35,2*%
%TO.N,Net-(D35-Pad2)*%
X237193534Y-63646288D03*
%TD*%
D18*
%TO.P,K4,1*%
%TO.N,/col 0*%
X55290000Y-80887500D03*
D19*
%TO.P,K4,2*%
%TO.N,Net-(D4-Pad2)*%
X49515000Y-79617500D03*
%TD*%
D18*
%TO.P,K44,1*%
%TO.N,/col 12*%
X310083750Y-61837500D03*
D19*
%TO.P,K44,2*%
%TO.N,Net-(D43-Pad2)*%
X304308750Y-60567500D03*
%TD*%
D11*
%TO.P,K39,1*%
%TO.N,/col 10*%
X255044923Y-85494716D03*
D12*
%TO.P,K39,2*%
%TO.N,Net-(D39-Pad2)*%
X249132073Y-85453158D03*
%TD*%
D16*
%TO.P,K16,1*%
%TO.N,/col 4*%
X131803360Y-33715004D03*
D17*
%TO.P,K16,2*%
%TO.N,Net-(D16-Pad2)*%
X126418605Y-31272067D03*
%TD*%
D18*
%TO.P,K36,1*%
%TO.N,/col 10*%
X267221250Y-23737500D03*
D19*
%TO.P,K36,2*%
%TO.N,Net-(D36-Pad2)*%
X261446250Y-22467500D03*
%TD*%
D11*
%TO.P,K30,1*%
%TO.N,/col 8*%
X221209665Y-29390961D03*
D12*
%TO.P,K30,2*%
%TO.N,Net-(D30-Pad2)*%
X215296815Y-29349403D03*
%TD*%
D11*
%TO.P,K29,1*%
%TO.N,/col 8*%
X205141250Y-91233172D03*
D12*
%TO.P,K29,2*%
%TO.N,Net-(D29-Pad2)*%
X199228400Y-91191614D03*
%TD*%
D11*
%TO.P,K33,1*%
%TO.N,/col 9*%
X239843377Y-25430243D03*
D12*
%TO.P,K33,2*%
%TO.N,Net-(D33-Pad2)*%
X233930527Y-25388685D03*
%TD*%
D18*
%TO.P,K40,1*%
%TO.N,/col 11*%
X286271250Y-23737500D03*
D19*
%TO.P,K40,2*%
%TO.N,Net-(D40-Pad2)*%
X280496250Y-22467500D03*
%TD*%
D11*
%TO.P,K32,1*%
%TO.N,/col 8*%
X224472672Y-67648563D03*
D12*
%TO.P,K32,2*%
%TO.N,Net-(D32-Pad2)*%
X218559822Y-67607005D03*
%TD*%
D16*
%TO.P,K19,1*%
%TO.N,/col 5*%
X150437071Y-37675722D03*
D17*
%TO.P,K19,2*%
%TO.N,Net-(D19-Pad2)*%
X145052316Y-35232785D03*
%TD*%
D19*
%TO.P,K5,2*%
%TO.N,Net-(D5-Pad2)*%
X66142462Y-22467500D03*
D18*
%TO.P,K5,1*%
%TO.N,/col 1*%
X71917462Y-23737500D03*
%TD*%
D16*
%TO.P,K20,1*%
%TO.N,/col 5*%
X151134782Y-57299613D03*
D17*
%TO.P,K20,2*%
%TO.N,Net-(D20-Pad2)*%
X145750027Y-54856676D03*
%TD*%
D11*
%TO.P,K23,1*%
%TO.N,/col 6*%
X183942241Y-37312396D03*
D12*
%TO.P,K23,2*%
%TO.N,Net-(D23-Pad2)*%
X178029391Y-37270838D03*
%TD*%
D18*
%TO.P,K3,1*%
%TO.N,/col 0*%
X52908750Y-61837500D03*
D19*
%TO.P,K3,2*%
%TO.N,Net-(D3-Pad2)*%
X47133750Y-60567500D03*
%TD*%
D20*
%TO.P,K43,1*%
%TO.N,/col 12*%
X312730000Y-40037500D03*
D21*
%TO.P,K43,2*%
%TO.N,Net-(D45-Pad2)*%
X314000000Y-34262500D03*
%TD*%
D16*
%TO.P,K10,1*%
%TO.N,/col 2*%
X95233646Y-45417460D03*
D17*
%TO.P,K10,2*%
%TO.N,Net-(D10-Pad2)*%
X89848891Y-42974523D03*
%TD*%
D22*
%TO.P,U1,40,5V*%
%TO.N,unconnected-(U1-Pad40)*%
X140970000Y-46720000D03*
%TO.P,U1,39,GND*%
%TO.N,unconnected-(U1-Pad39)*%
X143510000Y-46720000D03*
%TO.P,U1,38,3V3*%
%TO.N,unconnected-(U1-Pad38)*%
X146050000Y-46720000D03*
%TO.P,U1,37,PB10*%
%TO.N,unconnected-(U1-Pad37)*%
X148590000Y-46720000D03*
%TO.P,U1,36,PB2*%
%TO.N,/col 5*%
X151130000Y-46720000D03*
%TO.P,U1,35,PB1*%
%TO.N,/col 4*%
X153670000Y-46720000D03*
%TO.P,U1,34,PB0*%
%TO.N,/col 3*%
X156210000Y-46720000D03*
%TO.P,U1,33,PA7*%
%TO.N,/col 2*%
X158750000Y-46720000D03*
%TO.P,U1,32,PA6*%
%TO.N,/col 1*%
X161290000Y-46720000D03*
%TO.P,U1,31,PA5*%
%TO.N,/col 0*%
X163830000Y-46720000D03*
%TO.P,U1,30,PA4*%
%TO.N,/row 0*%
X166370000Y-46720000D03*
%TO.P,U1,29,PA3*%
%TO.N,/row 1*%
X168910000Y-46720000D03*
%TO.P,U1,28,PA2*%
%TO.N,/row 2*%
X171450000Y-46720000D03*
%TO.P,U1,27,PA1*%
%TO.N,/row 3*%
X173990000Y-46720000D03*
%TO.P,U1,26,PA0*%
%TO.N,/col 6*%
X176530000Y-46720000D03*
%TO.P,U1,25,RES*%
%TO.N,unconnected-(U1-Pad25)*%
X179070000Y-46720000D03*
%TO.P,U1,24,PC15*%
%TO.N,unconnected-(U1-Pad24)*%
X181610000Y-46720000D03*
%TO.P,U1,23,PC14*%
%TO.N,unconnected-(U1-Pad23)*%
X184150000Y-46720000D03*
%TO.P,U1,22,PC13*%
%TO.N,unconnected-(U1-Pad22)*%
X186690000Y-46720000D03*
%TO.P,U1,21,VBat*%
%TO.N,unconnected-(U1-Pad21)*%
X189230000Y-46720000D03*
%TO.P,U1,20,3V3*%
%TO.N,unconnected-(U1-Pad20)*%
X189230000Y-31480000D03*
%TO.P,U1,19,GND*%
%TO.N,unconnected-(U1-Pad19)*%
X186690000Y-31480000D03*
%TO.P,U1,18,5V*%
%TO.N,unconnected-(U1-Pad18)*%
X184150000Y-31480000D03*
%TO.P,U1,17,PB9*%
%TO.N,unconnected-(U1-Pad17)*%
X181610000Y-31480000D03*
%TO.P,U1,16,PB8*%
%TO.N,/col 7*%
X179070000Y-31480000D03*
%TO.P,U1,15,PB7*%
%TO.N,/col 8*%
X176530000Y-31480000D03*
%TO.P,U1,14,PB6*%
%TO.N,/col 9*%
X173990000Y-31480000D03*
%TO.P,U1,13,PB5*%
%TO.N,/col 10*%
X171450000Y-31480000D03*
%TO.P,U1,12,PB4*%
%TO.N,/col 11*%
X168910000Y-31480000D03*
%TO.P,U1,11,PB3*%
%TO.N,/col 12*%
X166370000Y-31480000D03*
%TO.P,U1,10,PA15*%
%TO.N,unconnected-(U1-Pad10)*%
X163830000Y-31480000D03*
%TO.P,U1,9,PA12*%
%TO.N,unconnected-(U1-Pad9)*%
X161290000Y-31480000D03*
%TO.P,U1,8,PA11*%
%TO.N,unconnected-(U1-Pad8)*%
X158750000Y-31480000D03*
%TO.P,U1,7,PA10*%
%TO.N,unconnected-(U1-Pad7)*%
X156210000Y-31480000D03*
%TO.P,U1,6,PA9*%
%TO.N,unconnected-(U1-Pad6)*%
X153670000Y-31480000D03*
%TO.P,U1,5,PA8*%
%TO.N,unconnected-(U1-Pad5)*%
X151130000Y-31480000D03*
%TO.P,U1,4,PB15*%
%TO.N,unconnected-(U1-Pad4)*%
X148590000Y-31480000D03*
%TO.P,U1,3,PB14*%
%TO.N,unconnected-(U1-Pad3)*%
X146050000Y-31480000D03*
%TO.P,U1,2,PB13*%
%TO.N,unconnected-(U1-Pad2)*%
X143510000Y-31480000D03*
D23*
%TO.P,U1,1,PB12*%
%TO.N,unconnected-(U1-Pad1)*%
X140970000Y-31480000D03*
%TD*%
D11*
%TO.P,K27,1*%
%TO.N,/col 7*%
X211195099Y-50995211D03*
D12*
%TO.P,K27,2*%
%TO.N,Net-(D27-Pad2)*%
X205282249Y-50953653D03*
%TD*%
D17*
%TO.P,K12,2*%
%TO.N,Net-(D12-Pad2)*%
X107784893Y-27311349D03*
D16*
%TO.P,K12,1*%
%TO.N,/col 3*%
X113169648Y-29754286D03*
%TD*%
D24*
%TO.N,/row 2*%
X166687500Y-107156250D03*
%TO.N,/row 3*%
X166687500Y-109537500D03*
%TD*%
D25*
%TO.N,/col 0*%
X163695584Y-108350000D02*
X168487500Y-103558084D01*
X104127208Y-108350000D02*
X163695584Y-108350000D01*
X91027208Y-95250000D02*
X104127208Y-108350000D01*
X55634353Y-80887500D02*
X69996853Y-95250000D01*
X69996853Y-95250000D02*
X91027208Y-95250000D01*
X168487500Y-103558084D02*
X168487500Y-51377500D01*
X55290000Y-80887500D02*
X55634353Y-80887500D01*
X168487500Y-51377500D02*
X163830000Y-46720000D01*
%TO.N,/col 1*%
X88627500Y-92213896D02*
X88627500Y-85156736D01*
X104313604Y-107900000D02*
X88627500Y-92213896D01*
X163509188Y-107900000D02*
X104313604Y-107900000D01*
X168037500Y-103371688D02*
X163509188Y-107900000D01*
X161290000Y-46720000D02*
X168037500Y-53467500D01*
X168037500Y-53467500D02*
X168037500Y-103371688D01*
%TO.N,/row 3*%
X169387500Y-106837500D02*
X169387500Y-51322500D01*
X166687500Y-109537500D02*
X169387500Y-106837500D01*
X169387500Y-51322500D02*
X173990000Y-46720000D01*
%TO.N,/row 2*%
X168937500Y-49232500D02*
X171450000Y-46720000D01*
X166687500Y-107156250D02*
X168937500Y-104906250D01*
X168937500Y-104906250D02*
X168937500Y-49232500D01*
%TO.N,/col 7*%
X197724275Y-28500000D02*
X182050000Y-28500000D01*
X202575953Y-33351678D02*
X197724275Y-28500000D01*
X182050000Y-28500000D02*
X179070000Y-31480000D01*
%TO.N,/col 8*%
X184735000Y-20500000D02*
X176530000Y-28705000D01*
X176530000Y-28705000D02*
X176530000Y-31480000D01*
X212318704Y-20500000D02*
X184735000Y-20500000D01*
X221209665Y-29390961D02*
X212318704Y-20500000D01*
%TO.N,/col 9*%
X234463134Y-20050000D02*
X182557500Y-20050000D01*
X239843377Y-25430243D02*
X234463134Y-20050000D01*
X182557500Y-20050000D02*
X173990000Y-28617500D01*
X173990000Y-28617500D02*
X173990000Y-31480000D01*
%TO.N,/col 10*%
X180400000Y-19600000D02*
X263083750Y-19600000D01*
X263083750Y-19600000D02*
X267221250Y-23737500D01*
X171450000Y-31480000D02*
X171450000Y-28550000D01*
X171450000Y-28550000D02*
X180400000Y-19600000D01*
%TO.N,/col 11*%
X168910000Y-28590000D02*
X168910000Y-31480000D01*
X178350000Y-19150000D02*
X168910000Y-28590000D01*
X281683750Y-19150000D02*
X178350000Y-19150000D01*
X286271250Y-23737500D02*
X281683750Y-19150000D01*
%TO.N,/col 12*%
X166370000Y-28630000D02*
X166370000Y-31480000D01*
X176300000Y-18700000D02*
X166370000Y-28630000D01*
X294400000Y-31900000D02*
X294400000Y-26900000D01*
X286200000Y-18700000D02*
X176300000Y-18700000D01*
X312730000Y-40037500D02*
X302537500Y-40037500D01*
X302537500Y-40037500D02*
X294400000Y-31900000D01*
X294400000Y-26900000D02*
X286200000Y-18700000D01*
%TO.N,/col 0*%
X52908750Y-61837500D02*
X52908750Y-78506250D01*
X50527500Y-42787500D02*
X48146250Y-40406250D01*
X52908750Y-78506250D02*
X55290000Y-80887500D01*
X50527500Y-59456250D02*
X52908750Y-61837500D01*
X50527500Y-42787500D02*
X50527500Y-59456250D01*
X48146250Y-40406250D02*
X48146250Y-23737500D01*
%TO.N,/col 1*%
X71958750Y-42787500D02*
X71958750Y-57075000D01*
X76721250Y-61837500D02*
X76721250Y-73250486D01*
X71917462Y-42746212D02*
X71958750Y-42787500D01*
X76721250Y-73250486D02*
X88627500Y-85156736D01*
X71958750Y-57075000D02*
X76721250Y-61837500D01*
X161720000Y-46720000D02*
X161290000Y-46720000D01*
X71917462Y-23737500D02*
X71917462Y-42746212D01*
%TO.N,/col 2*%
X104500000Y-107450000D02*
X163322792Y-107450000D01*
X95233646Y-45417460D02*
X100589784Y-50773598D01*
X94535936Y-25793568D02*
X93347736Y-26981768D01*
X100589784Y-66031530D02*
X104500000Y-69941746D01*
X167587500Y-103185292D02*
X167587500Y-55557500D01*
X167587500Y-55557500D02*
X158750000Y-46720000D01*
X163322792Y-107450000D02*
X167587500Y-103185292D01*
X100589784Y-50773598D02*
X100589784Y-66031530D01*
X104500000Y-69941746D02*
X104500000Y-107450000D01*
X93347736Y-26981768D02*
X93347736Y-43531550D01*
X93347736Y-43531550D02*
X95233646Y-45417460D01*
%TO.N,/col 3*%
X167137500Y-102998896D02*
X167137500Y-57647500D01*
X167137500Y-57647500D02*
X156210000Y-46720000D01*
X113000000Y-61000000D02*
X113000000Y-50245534D01*
X111981448Y-30942486D02*
X113169648Y-29754286D01*
X163136396Y-107000000D02*
X167137500Y-102998896D01*
X117500000Y-73831268D02*
X117500000Y-85500000D01*
X111981448Y-48152039D02*
X111981448Y-30942486D01*
X116500000Y-86500000D02*
X116500000Y-107000000D01*
X113000000Y-50245534D02*
X113867358Y-49378176D01*
X113207585Y-49378176D02*
X111981448Y-48152039D01*
X116500000Y-107000000D02*
X163136396Y-107000000D01*
X119223496Y-69992248D02*
X119223496Y-67223496D01*
X119223496Y-69992248D02*
X119223496Y-72107772D01*
X119223496Y-72107772D02*
X117500000Y-73831268D01*
X119223496Y-67223496D02*
X113000000Y-61000000D01*
X117500000Y-85500000D02*
X116500000Y-86500000D01*
X113867358Y-49378176D02*
X113207585Y-49378176D01*
%TO.N,/col 4*%
X137857208Y-58695034D02*
X132501070Y-53338896D01*
X137000000Y-81010256D02*
X137000000Y-74810174D01*
X163000000Y-106500000D02*
X166687500Y-102812500D01*
X137000000Y-74810174D02*
X137857208Y-73952966D01*
X137000000Y-81010256D02*
X139500000Y-83510256D01*
X166687500Y-59737500D02*
X153670000Y-46720000D01*
X166687500Y-102812500D02*
X166687500Y-59737500D01*
X139500000Y-106500000D02*
X163000000Y-106500000D01*
X130615160Y-34903204D02*
X131803360Y-33715004D01*
X139500000Y-83510256D02*
X139500000Y-106500000D01*
X132501070Y-53338896D02*
X130615160Y-51452986D01*
X126908848Y-91101408D02*
X137000000Y-81010256D01*
X137857208Y-73952966D02*
X137857208Y-58695034D01*
X130615160Y-51452986D02*
X130615160Y-34903204D01*
%TO.N,/col 5*%
X156000000Y-78404604D02*
X156490920Y-77913684D01*
X156000000Y-96348943D02*
X156000000Y-78404604D01*
X151134782Y-57299613D02*
X156490920Y-62655751D01*
X150437071Y-37675722D02*
X150000000Y-38112793D01*
X156490920Y-52080920D02*
X151130000Y-46720000D01*
X151130000Y-57294831D02*
X151134782Y-57299613D01*
X157188631Y-97537574D02*
X156000000Y-96348943D01*
X150000000Y-43000000D02*
X151130000Y-44130000D01*
X150000000Y-38112793D02*
X150000000Y-43000000D01*
X151130000Y-44130000D02*
X151130000Y-46720000D01*
X156490920Y-62655751D02*
X156490920Y-77913684D01*
X156490920Y-62655751D02*
X156490920Y-52080920D01*
%TO.N,/col 6*%
X180810000Y-51000000D02*
X189500000Y-51000000D01*
X176530000Y-46720000D02*
X180810000Y-51000000D01*
X179032418Y-44217582D02*
X176530000Y-46720000D01*
X193000000Y-69775248D02*
X193000000Y-55394541D01*
X184698022Y-38068177D02*
X184698022Y-44217582D01*
X193000000Y-55394541D02*
X192561387Y-54955928D01*
X189500000Y-51000000D02*
X191500000Y-53000000D01*
X183942241Y-37312396D02*
X184698022Y-38068177D01*
X187205249Y-75569999D02*
X193000000Y-69775248D01*
X184698022Y-44217582D02*
X179032418Y-44217582D01*
%TO.N,/col 7*%
X212000000Y-65448243D02*
X205838961Y-71609282D01*
X203500000Y-34275725D02*
X203500000Y-43300112D01*
X202575953Y-33351678D02*
X203500000Y-34275725D01*
X211195099Y-50995211D02*
X212000000Y-51800112D01*
X212000000Y-51800112D02*
X212000000Y-65448243D01*
X203500000Y-43300112D02*
X211195099Y-50995211D01*
%TO.N,/col 8*%
X224472672Y-67648563D02*
X224472672Y-79851198D01*
X213090698Y-91233172D02*
X205141250Y-91233172D01*
X222000000Y-39205683D02*
X222000000Y-30181296D01*
X229828811Y-47034494D02*
X222000000Y-39205683D01*
X230500000Y-47705683D02*
X229828811Y-47034494D01*
X222000000Y-30181296D02*
X221209665Y-29390961D01*
X224472672Y-59027328D02*
X230500000Y-53000000D01*
X224472672Y-67648563D02*
X224472672Y-59027328D01*
X230500000Y-53000000D02*
X230500000Y-47705683D01*
X224472672Y-79851198D02*
X213090698Y-91233172D01*
%TO.N,/col 9*%
X248462522Y-43073775D02*
X248462522Y-31128689D01*
X248462522Y-58331708D02*
X248462522Y-43073775D01*
X242764076Y-25430243D02*
X239843377Y-25430243D01*
X243106384Y-63687846D02*
X248462522Y-58331708D01*
X248462522Y-31128689D02*
X242764076Y-25430243D01*
%TO.N,/col 10*%
X255044923Y-85494716D02*
X267221250Y-73318389D01*
X267221250Y-61837500D02*
X271946382Y-57112368D01*
X267221250Y-38369353D02*
X267221250Y-23737500D01*
X271946382Y-57112368D02*
X271946382Y-42824868D01*
X271983750Y-42787500D02*
X271639397Y-42787500D01*
X267221250Y-73318389D02*
X267221250Y-61837500D01*
X271639397Y-42787500D02*
X267221250Y-38369353D01*
%TO.N,/col 11*%
X280000000Y-40000000D02*
X283728750Y-36271250D01*
X286271250Y-36271250D02*
X286271250Y-23737500D01*
X286271250Y-61837500D02*
X280000000Y-55566250D01*
X280000000Y-55566250D02*
X280000000Y-40000000D01*
X286271250Y-38025000D02*
X286271250Y-36271250D01*
X291033750Y-42787500D02*
X286271250Y-38025000D01*
X283728750Y-36271250D02*
X286271250Y-36271250D01*
%TO.N,/col 12*%
X307702500Y-80887500D02*
X310083750Y-78506250D01*
X310083750Y-78506250D02*
X310083750Y-61837500D01*
X310083750Y-61837500D02*
X312730000Y-59191250D01*
X312730000Y-59191250D02*
X312730000Y-40037500D01*
%TD*%
M02*
