%TF.GenerationSoftware,KiCad,Pcbnew,(6.0.6)*%
%TF.CreationDate,2022-07-10T17:12:38+03:00*%
%TF.ProjectId,liisa,6c696973-612e-46b6-9963-61645f706362,rev?*%
%TF.SameCoordinates,Original*%
%TF.FileFunction,Paste,Bot*%
%TF.FilePolarity,Positive*%
%FSLAX46Y46*%
G04 Gerber Fmt 4.6, Leading zero omitted, Abs format (unit mm)*
G04 Created by KiCad (PCBNEW (6.0.6)) date 2022-07-10 17:12:38*
%MOMM*%
%LPD*%
G01*
G04 APERTURE LIST*
G04 Aperture macros list*
%AMRotRect*
0 Rectangle, with rotation*
0 The origin of the aperture is its center*
0 $1 length*
0 $2 width*
0 $3 Rotation angle, in degrees counterclockwise*
0 Add horizontal line*
21,1,$1,$2,0,0,$3*%
G04 Aperture macros list end*
%TA.AperFunction,Profile*%
%ADD10C,0.100000*%
%TD*%
%ADD11RotRect,1.100000X1.100000X192.000000*%
%ADD12R,1.100000X1.100000*%
%ADD13RotRect,1.100000X1.100000X168.000000*%
G04 APERTURE END LIST*
D10*
X320410000Y-113520000D02*
X320410000Y-76010000D01*
X38210000Y-72820000D02*
X35410000Y-72820000D01*
X368553350Y-22485001D02*
X368553350Y-22485001D01*
X35410000Y-17920000D02*
X320410000Y-17920000D01*
X38210000Y-76020000D02*
G75*
G03*
X38210000Y-72820000I0J1600000D01*
G01*
X320410000Y-76010000D02*
X317610000Y-76010000D01*
X320410000Y-17920000D02*
X320410000Y-72810000D01*
X35410000Y-76020000D02*
X35410000Y-113520000D01*
X38210000Y-76020000D02*
X35410000Y-76020000D01*
X320410000Y-72810000D02*
X317610000Y-72810000D01*
X317610000Y-72810000D02*
G75*
G03*
X317610000Y-76010000I0J-1600000D01*
G01*
X320410000Y-113520000D02*
X35410000Y-113520000D01*
X35410000Y-72820000D02*
X35410000Y-17920000D01*
D11*
%TO.C,D31*%
X229736376Y-55521677D03*
X226997562Y-56103829D03*
%TD*%
D12*
%TO.C,D41*%
X289178750Y-51070000D03*
X286378750Y-51070000D03*
%TD*%
%TO.C,D40*%
X284416250Y-32020000D03*
X281616250Y-32020000D03*
%TD*%
D13*
%TO.C,D10*%
X91697154Y-53133291D03*
X88958340Y-52551139D03*
%TD*%
D12*
%TO.C,D4*%
X53435000Y-89170000D03*
X50635000Y-89170000D03*
%TD*%
%TO.C,D8*%
X86772500Y-92905505D03*
X83972500Y-92905505D03*
%TD*%
%TO.C,D42*%
X284416250Y-70120000D03*
X281616250Y-70120000D03*
%TD*%
D13*
%TO.C,D16*%
X128266867Y-41430835D03*
X125528053Y-40848683D03*
%TD*%
%TO.C,D17*%
X128964578Y-61054726D03*
X126225764Y-60472574D03*
%TD*%
D12*
%TO.C,D6*%
X70103750Y-51070000D03*
X67303750Y-51070000D03*
%TD*%
%TO.C,D43*%
X308228750Y-70120000D03*
X305428750Y-70120000D03*
%TD*%
D11*
%TO.C,D25*%
X187112814Y-84057183D03*
X184374000Y-84639335D03*
%TD*%
D12*
%TO.C,D38*%
X265366250Y-70120000D03*
X262566250Y-70120000D03*
%TD*%
%TO.C,D3*%
X51053750Y-70120000D03*
X48253750Y-70120000D03*
%TD*%
%TO.C,D36*%
X265366250Y-32020000D03*
X262566250Y-32020000D03*
%TD*%
%TO.C,D7*%
X74866250Y-70120000D03*
X72066250Y-70120000D03*
%TD*%
D13*
%TO.C,D20*%
X147598291Y-65015443D03*
X144859477Y-64433291D03*
%TD*%
D11*
%TO.C,D28*%
X205746526Y-80096465D03*
X203007712Y-80678617D03*
%TD*%
D12*
%TO.C,D23*%
X168500000Y-40900000D03*
X168500000Y-38100000D03*
%TD*%
D13*
%TO.C,D11*%
X97053292Y-73747361D03*
X94314478Y-73165209D03*
%TD*%
%TO.C,D13*%
X110298744Y-57087181D03*
X107559930Y-56505029D03*
%TD*%
D11*
%TO.C,D27*%
X211102664Y-59482394D03*
X208363850Y-60064546D03*
%TD*%
%TO.C,D35*%
X243013950Y-72175030D03*
X240275136Y-72757182D03*
%TD*%
D12*
%TO.C,D37*%
X270128750Y-51070000D03*
X267328750Y-51070000D03*
%TD*%
%TO.C,D45*%
X304447500Y-38182500D03*
X304447500Y-35382500D03*
%TD*%
%TO.C,D44*%
X305847500Y-89170000D03*
X303047500Y-89170000D03*
%TD*%
D13*
%TO.C,D12*%
X106894341Y-36887965D03*
X109633155Y-37470117D03*
%TD*%
D11*
%TO.C,D29*%
X204946261Y-99237871D03*
X202207447Y-99820023D03*
%TD*%
D12*
%TO.C,D2*%
X48672500Y-51070000D03*
X45872500Y-51070000D03*
%TD*%
D11*
%TO.C,D32*%
X224380238Y-76135748D03*
X221641424Y-76717900D03*
%TD*%
D13*
%TO.C,D22*%
X153754693Y-104770921D03*
X151015879Y-104188769D03*
%TD*%
D11*
%TO.C,D24*%
X192468953Y-63443113D03*
X189730139Y-64025265D03*
%TD*%
D13*
%TO.C,D18*%
X134320715Y-81668797D03*
X131581901Y-81086645D03*
%TD*%
%TO.C,D9*%
X90956228Y-33500214D03*
X88217414Y-32918062D03*
%TD*%
D12*
%TO.C,D19*%
X158500000Y-40900000D03*
X158500000Y-38100000D03*
%TD*%
D11*
%TO.C,D30*%
X221117230Y-37878145D03*
X218378416Y-38460297D03*
%TD*%
%TO.C,D34*%
X248370088Y-51560959D03*
X245631274Y-52143111D03*
%TD*%
D13*
%TO.C,D15*%
X123474912Y-98334755D03*
X120736098Y-97752603D03*
%TD*%
D12*
%TO.C,D1*%
X46291250Y-32020000D03*
X43491250Y-32020000D03*
%TD*%
D13*
%TO.C,D14*%
X115687004Y-77708080D03*
X112948190Y-77125928D03*
%TD*%
D12*
%TO.C,D5*%
X70011106Y-32020000D03*
X67211106Y-32020000D03*
%TD*%
D13*
%TO.C,D21*%
X152954428Y-85629515D03*
X150215614Y-85047363D03*
%TD*%
D11*
%TO.C,D26*%
X202483519Y-41838862D03*
X199744705Y-42421014D03*
%TD*%
%TO.C,D33*%
X239750942Y-33917427D03*
X237012128Y-34499579D03*
%TD*%
%TO.C,D39*%
X254631207Y-93498341D03*
X251892393Y-94080493D03*
%TD*%
M02*
