M48
; DRILL file {KiCad (6.0.6)} date Sun Jul 10 17:15:34 2022
; FORMAT={-:-/ absolute / metric / decimal}
; #@! TF.CreationDate,2022-07-10T17:15:34+03:00
; #@! TF.GenerationSoftware,Kicad,Pcbnew,(6.0.6)
; #@! TF.FileFunction,NonPlated,1,2,NPTH
FMAT,2
METRIC
; #@! TA.AperFunction,NonPlated,NPTH,ComponentDrill
T1C1.702
; #@! TA.AperFunction,NonPlated,NPTH,ComponentDrill
T2C3.048
; #@! TA.AperFunction,NonPlated,NPTH,ComponentDrill
T3C3.988
%
G90
G05
T1
X39.811Y-27.258
X42.192Y-46.307
X44.574Y-65.358
X46.955Y-84.407
X49.971Y-27.258
X52.352Y-46.307
X54.734Y-65.358
X57.115Y-84.407
X63.582Y-27.258
X68.386Y-65.358
X73.742Y-27.258
X73.784Y-46.307
X78.546Y-65.358
X80.292Y-88.677
X85.651Y-27.504
X86.349Y-47.128
X90.453Y-88.677
X91.705Y-67.742
X95.589Y-29.616
X96.287Y-49.24
X101.643Y-69.854
X104.285Y-31.464
X104.983Y-51.088
X110.339Y-71.702
X114.223Y-33.577
X114.921Y-53.201
X118.024Y-92.812
X120.277Y-73.815
X122.919Y-35.425
X123.616Y-55.049
X127.962Y-94.924
X128.972Y-75.663
X132.857Y-37.538
X133.554Y-57.161
X138.91Y-77.775
X141.552Y-39.386
X142.25Y-59.01
X147.606Y-79.624
X148.304Y-99.248
X151.49Y-41.498
X152.188Y-61.122
X157.544Y-81.736
X158.242Y-101.36
X176.521Y-42.488
X179.784Y-80.746
X185.14Y-60.132
X186.459Y-40.376
X189.722Y-78.634
X195.078Y-58.02
X195.155Y-38.528
X197.72Y-96.409
X198.418Y-76.785
X203.774Y-56.171
X205.093Y-36.415
X207.658Y-94.297
X208.356Y-74.673
X213.712Y-54.059
X213.789Y-34.567
X217.052Y-72.825
X222.408Y-52.211
X223.727Y-32.455
X226.99Y-70.712
X232.346Y-50.098
X232.422Y-30.606
X235.685Y-68.864
X241.042Y-48.25
X242.36Y-28.494
X245.623Y-66.751
X247.624Y-90.671
X250.979Y-46.137
X257.562Y-88.558
X258.886Y-27.258
X258.886Y-65.358
X263.649Y-46.307
X269.046Y-27.258
X269.046Y-65.358
X273.809Y-46.307
X277.936Y-27.258
X277.936Y-65.358
X282.699Y-46.307
X288.096Y-27.258
X288.096Y-65.358
X299.368Y-84.407
X301.749Y-65.358
X309.21Y-31.702
X309.21Y-41.862
X309.527Y-84.407
X311.909Y-65.358
T2
X112.768Y-84.553
X136.123Y-89.517
X189.56Y-91.003
X212.914Y-86.039
X316.195Y-24.845
X316.195Y-48.721
T3
X44.891Y-27.258
X47.273Y-46.307
X49.654Y-65.358
X52.035Y-84.407
X68.662Y-27.258
X68.704Y-46.307
X73.466Y-65.358
X85.373Y-88.677
X90.62Y-28.56
X91.318Y-48.184
X96.674Y-68.798
X109.254Y-32.521
X109.6Y-99.46
X109.952Y-52.145
X115.308Y-72.759
X122.993Y-93.868
X127.888Y-36.481
X128.585Y-56.105
X132.954Y-104.424
X133.941Y-76.719
X146.521Y-40.442
X147.219Y-60.066
X152.575Y-80.68
X153.273Y-100.304
X181.49Y-41.432
X184.753Y-79.69
X190.109Y-59.076
X192.728Y-105.91
X200.124Y-37.472
X202.689Y-95.353
X203.387Y-75.729
X208.743Y-55.115
X216.083Y-100.946
X218.758Y-33.511
X222.021Y-71.768
X227.377Y-51.154
X237.391Y-29.55
X240.654Y-67.808
X246.011Y-47.194
X252.593Y-89.615
X263.966Y-27.258
X263.966Y-65.358
X268.729Y-46.307
X283.016Y-27.258
X283.016Y-65.358
X287.779Y-46.307
X300.955Y-24.845
X300.955Y-48.721
X304.447Y-84.407
X306.829Y-65.358
X309.21Y-36.782
T0
M30
